<svg width="33" height="50" viewBox="0 0 33 50" fill="none" xmlns="http://www.w3.org/2000/svg">
<g id="Group">
<path id="Vector" d="M17.8666 24.5853C17.6118 24.7642 17.46 25.0569 17.46 25.3714V33.265C17.46 33.7963 17.8882 34.2246 18.4195 34.2246C18.9508 34.2246 19.3791 33.7963 19.3791 33.265V25.8702L27.7661 19.9987C28.0534 20.1451 28.3733 20.2319 28.7203 20.2319C29.8588 20.2319 30.7804 19.3102 30.7804 18.1717C30.7804 17.0332 29.8588 16.1116 28.7203 16.1116C27.5818 16.1116 26.6601 17.0332 26.6601 18.1717C26.6601 18.2585 26.6656 18.3398 26.6764 18.4265L17.872 24.5907L17.8666 24.5853Z" fill="url(#paint0_linear_949_23558)"/>
<path id="Vector_2" d="M11.914 22.4872V30.3483C11.258 30.6952 10.8135 31.3783 10.8135 32.1753C10.8135 33.3138 11.7351 34.2354 12.8736 34.2354C14.0121 34.2354 14.9338 33.3138 14.9338 32.1753C14.9338 31.3837 14.4838 30.6952 13.8278 30.3483V22.9859L26.2266 14.3062C26.4814 14.1273 26.6332 13.8346 26.6332 13.5201V7.65955C26.6332 7.12824 26.2049 6.69995 25.6736 6.69995C25.1423 6.69995 24.714 7.12824 24.714 7.65955V13.0213L12.3152 21.7011C12.0604 21.88 11.9086 22.1727 11.9086 22.4872H11.914Z" fill="url(#paint1_linear_949_23558)"/>
<path id="Vector_3" d="M26.7785 25.1166L23.6124 27.3339C23.1787 27.6375 23.0757 28.2339 23.3793 28.6676C23.5636 28.9333 23.8618 29.0742 24.1654 29.0742C24.3551 29.0742 24.5449 29.02 24.7129 28.9007L27.8791 26.6834C28.3128 26.3798 28.4158 25.7834 28.1122 25.3497C27.8086 24.916 27.2122 24.813 26.7785 25.1166Z" fill="url(#paint2_linear_949_23558)"/>
<path id="Vector_4" d="M32.8241 30.6897C32.5151 30.2506 31.9079 30.1422 31.4633 30.4512L16.5002 40.9254L1.53701 30.4512C1.09788 30.1422 0.485265 30.2506 0.176243 30.6897C-0.132779 31.1343 -0.0243568 31.7415 0.414779 32.0505L14.7924 42.1181L10.58 45.0674C10.2926 44.921 9.96735 44.8343 9.62037 44.8343C8.46019 44.8343 7.52228 45.7722 7.52228 46.9324C7.52228 48.0926 8.46019 49.0305 9.62037 49.0305C10.7806 49.0305 11.7185 48.0926 11.7185 46.9324C11.7185 46.8456 11.713 46.7535 11.7022 46.6667L16.5002 43.3109L21.2981 46.6667C21.2873 46.7535 21.2819 46.8402 21.2819 46.9324C21.2819 48.0926 22.2198 49.0305 23.38 49.0305C24.5402 49.0305 25.4781 48.0926 25.4781 46.9324C25.4781 45.7722 24.5402 44.8343 23.38 44.8343C23.033 44.8343 22.7077 44.921 22.4204 45.0674L18.2079 42.1181L32.5856 32.0505C33.0247 31.7415 33.1331 31.1343 32.8241 30.6897Z" fill="url(#paint3_linear_949_23558)"/>
<path id="Vector_5" d="M6.22172 8.00104L9.38784 5.78368C9.82156 5.48008 9.92456 4.88372 9.62096 4.45C9.43663 4.18435 9.13846 4.0434 8.83486 4.0434C8.64511 4.0434 8.45535 4.09761 8.28729 4.21688L5.12117 6.43425C4.68746 6.73785 4.58446 7.33421 4.88806 7.76792C5.19166 8.20164 5.78801 8.30464 6.22172 8.00104Z" fill="url(#paint4_linear_949_23558)"/>
<path id="Vector_6" d="M19.1726 4.85665V10.1317L6.7738 18.8114C6.51899 18.9903 6.36719 19.2831 6.36719 19.5975V25.4581C6.36719 25.9894 6.79549 26.4177 7.32679 26.4177C7.85809 26.4177 8.28638 25.9894 8.28638 25.4581V20.0963L20.6852 11.4166C20.94 11.2377 21.0918 10.9449 21.0918 10.6305V4.85665C21.7478 4.50968 22.1924 3.82658 22.1924 3.02963C22.1924 1.89113 21.2707 0.969482 20.1322 0.969482C18.9937 0.969482 18.0721 1.89113 18.0721 3.02963C18.0721 3.82116 18.522 4.50968 19.178 4.85665H19.1726Z" fill="url(#paint5_linear_949_23558)"/>
<path id="Vector_7" d="M4.28529 17.0115C5.42379 17.0115 6.34545 16.0898 6.34545 14.9513C6.34545 14.8646 6.34003 14.7833 6.32918 14.6965L15.1336 8.53235C15.3884 8.35344 15.5402 8.06068 15.5402 7.74624V1.93988C15.5402 1.40858 15.1119 0.980286 14.5806 0.980286C14.0493 0.980286 13.621 1.40858 13.621 1.93988V7.24747L5.23404 13.1243C4.94671 12.9779 4.62685 12.8912 4.27988 12.8912C3.14138 12.8912 2.21973 13.8128 2.21973 14.9513C2.21973 16.0898 3.14138 17.0115 4.27988 17.0115H4.28529Z" fill="url(#paint6_linear_949_23558)"/>
</g>
<defs>
<linearGradient id="paint0_linear_949_23558" x1="24.1175" y1="7.19873" x2="24.1175" y2="44.6337" gradientUnits="userSpaceOnUse">
<stop stop-color="#00ABAF"/>
<stop offset="0.24" stop-color="#0093B4"/>
<stop offset="0.48" stop-color="#0080BA"/>
<stop offset="1" stop-color="#774896"/>
</linearGradient>
<linearGradient id="paint1_linear_949_23558" x1="18.7233" y1="7.19872" x2="18.7233" y2="44.6337" gradientUnits="userSpaceOnUse">
<stop stop-color="#00ABAF"/>
<stop offset="0.24" stop-color="#0093B4"/>
<stop offset="0.48" stop-color="#0080BA"/>
<stop offset="1" stop-color="#774896"/>
</linearGradient>
<linearGradient id="paint2_linear_949_23558" x1="25.7484" y1="7.19873" x2="25.7484" y2="44.6337" gradientUnits="userSpaceOnUse">
<stop stop-color="#00ABAF"/>
<stop offset="0.24" stop-color="#0093B4"/>
<stop offset="0.48" stop-color="#0080BA"/>
<stop offset="1" stop-color="#774896"/>
</linearGradient>
<linearGradient id="paint3_linear_949_23558" x1="16.5002" y1="7.19867" x2="16.5002" y2="44.6337" gradientUnits="userSpaceOnUse">
<stop stop-color="#29B2B2"/>
<stop offset="0.27" stop-color="#1091B3"/>
<stop offset="0.48" stop-color="#017EB5"/>
<stop offset="1" stop-color="#704B98"/>
</linearGradient>
<linearGradient id="paint4_linear_949_23558" x1="7.25722" y1="7.19867" x2="7.25722" y2="44.6337" gradientUnits="userSpaceOnUse">
<stop stop-color="#00ABAF"/>
<stop offset="0.24" stop-color="#0093B4"/>
<stop offset="0.48" stop-color="#0080BA"/>
<stop offset="1" stop-color="#774896"/>
</linearGradient>
<linearGradient id="paint5_linear_949_23558" x1="14.2771" y1="7.19871" x2="14.2771" y2="44.6337" gradientUnits="userSpaceOnUse">
<stop stop-color="#00ABAF"/>
<stop offset="0.24" stop-color="#0093B4"/>
<stop offset="0.48" stop-color="#0080BA"/>
<stop offset="1" stop-color="#774896"/>
</linearGradient>
<linearGradient id="paint6_linear_949_23558" x1="8.88267" y1="7.19867" x2="8.88267" y2="44.6337" gradientUnits="userSpaceOnUse">
<stop stop-color="#00ABAF"/>
<stop offset="0.24" stop-color="#0093B4"/>
<stop offset="0.48" stop-color="#0080BA"/>
<stop offset="1" stop-color="#774896"/>
</linearGradient>
</defs>
</svg>
