<svg class="img-fluid" id="outputsvg" xmlns="http://www.w3.org/2000/svg" width="426" height="204" viewBox="0 0 4260 2040"><g id="l2Q4EczGN2iUUyL8yKfRCAi" fill="rgb(0,0,0)" style="transform: none;"><g style="transform: none;"><path id="pFXc5HfL7" d="M432 1989 c-23 -17 -42 -34 -42 -39 0 -9 79 -70 91 -70 3 0 26 15 50 34 l44 33 44 -33 c24 -19 48 -34 53 -34 12 0 88 63 88 73 0 11 -51 55 -73 63 -12 4 -34 -5 -62 -25 -24 -17 -46 -31 -50 -31 -4 0 -23 14 -42 30 -18 17 -39 30 -46 30 -7 0 -32 -14 -55 -31z"></path><path id="pp73OLDcT" d="M20 1940 l0 -50 53 0 c82 0 87 -9 87 -168 0 -158 11 -217 51 -265 39 -48 76 -57 232 -57 l127 0 0 143 c0 169 7 187 71 187 29 0 47 -7 65 -25 24 -24 25 -27 22 -162 l-3 -138 155 -3 c174 -3 213 4 265 49 39 35 55 79 55 159 1 83 14 94 115 99 47 1 85 1 85 -2 0 -3 -9 -49 -21 -104 -11 -54 -23 -122 -26 -150 l-5 -53 246 0 246 0 0 58 c0 80 -25 156 -65 201 l-34 38 196 6 c108 4 231 7 275 7 l78 0 0 -155 0 -155 70 0 70 0 0 155 0 155 80 0 80 0 0 -235 0 -235 70 0 70 0 0 235 0 235 75 0 75 0 0 -235 0 -235 70 0 70 0 0 285 0 285 -872 0 c-562 0 -886 -4 -910 -10 -20 -6 -47 -19 -59 -29 -23 -18 -24 -18 -54 5 -43 32 -108 54 -164 54 -58 0 -138 -25 -168 -53 l-23 -20 -23 21 c-50 47 -166 57 -231 19 -63 -35 -79 -74 -84 -199 l-4 -108 -42 0 c-78 0 -80 5 -86 207 -3 98 -11 189 -17 203 -28 63 -87 89 -205 90 l-58 0 0 -50z m1011 -229 c20 -16 24 -30 27 -92 3 -64 1 -78 -18 -101 -20 -26 -26 -28 -102 -28 l-80 0 4 89 c3 83 5 92 32 120 24 25 38 31 72 31 26 0 51 -7 65 -19z m551 -21 c62 -18 118 -101 118 -177 0 -22 -3 -23 -109 -23 l-109 0 14 68 c7 37 16 84 19 105 6 40 11 42 67 27z"></path><path id="pUb2sLhpF" d="M3344 1797 c-2 -7 -3 -65 -2 -128 l3 -114 130 -87 c72 -48 155 -104 185 -126 30 -22 65 -45 78 -51 l22 -12 0 266 0 265 -205 0 c-160 0 -207 -3 -211 -13z m376 -237 c0 -110 -2 -200 -6 -200 -5 0 -249 161 -300 198 -22 16 -23 24 -24 110 l0 92 165 0 165 0 0 -200z"></path><path id="pfgCMqCbX" d="M3790 1544 l0 -266 68 38 c37 21 82 46 100 56 18 10 44 25 57 34 24 15 49 29 164 92 l61 32 0 140 0 140 -225 0 -225 0 0 -266z m400 112 l0 -104 -82 -48 c-46 -26 -104 -59 -130 -73 -26 -14 -70 -38 -98 -54 l-50 -27 0 205 0 205 180 0 180 0 0 -104z"></path><path id="pFMlEWYwb" d="M3340 1270 c0 -132 3 -240 6 -240 3 0 33 16 65 35 33 19 64 35 68 35 5 0 19 8 32 19 13 10 53 34 89 53 101 54 130 72 130 83 0 6 -29 28 -64 50 -36 22 -119 77 -187 123 -67 45 -126 82 -130 82 -5 0 -9 -108 -9 -240z"></path><path id="p4DZRyvCm" d="M4180 1465 c-19 -14 -39 -25 -45 -25 -6 0 -27 -12 -48 -26 -21 -14 -64 -40 -95 -57 -149 -83 -182 -102 -182 -107 1 -7 96 -80 105 -80 4 0 46 -27 94 -61 97 -68 220 -149 227 -149 2 0 4 119 4 265 0 291 2 285 -60 240z m10 -235 c0 -104 -2 -190 -5 -190 -8 0 -259 171 -279 191 -19 17 -18 18 25 44 140 84 245 144 252 145 4 0 7 -85 7 -190z"></path><path id="pVkeB3Xht" d="M1996 1429 l-47 -41 41 -30 c22 -16 40 -35 40 -40 0 -6 -18 -27 -41 -46 l-41 -35 38 -33 c22 -18 47 -33 58 -34 10 0 35 15 56 34 l37 33 -45 39 -44 39 46 34 c25 19 46 37 46 40 -1 3 -23 23 -49 43 l-49 38 -46 -41z"></path><path id="p194lYPdqh" d="M3715 1200 c-22 -16 -46 -29 -53 -30 -7 0 -33 -13 -57 -30 -24 -16 -46 -30 -48 -30 -6 0 -138 -73 -176 -97 l-23 -15 48 -34 c27 -18 66 -46 86 -61 20 -15 69 -50 108 -78 40 -27 92 -65 116 -83 l44 -33 0 261 c0 143 -1 260 -2 259 -2 0 -21 -14 -43 -29z"></path><path id="pSeC7RSW6" d="M333 1210 c-85 -18 -143 -67 -162 -135 -6 -22 -11 -100 -11 -172 l0 -133 70 0 70 0 0 130 c0 149 11 190 59 214 55 29 136 12 161 -33 6 -12 10 -105 10 -230 l0 -211 70 0 70 0 0 49 0 48 101 -51 c96 -49 103 -51 182 -51 105 0 148 23 183 99 21 46 24 65 24 184 l0 132 -240 0 -240 0 -10 28 c-21 59 -37 78 -92 105 -64 30 -172 43 -245 27z m687 -342 c0 -80 -3 -95 -22 -115 -17 -18 -32 -23 -69 -23 -27 0 -61 5 -76 11 -81 33 -102 44 -140 76 -40 32 -43 38 -43 82 0 26 3 51 7 54 3 4 82 7 175 7 l168 0 0 -92z"></path><path id="pRcCHVZO6" d="M2200 1171 c0 -46 2 -51 23 -51 12 0 33 -7 45 -16 22 -15 22 -19 22 -240 l0 -224 70 0 69 0 3 158 3 157 78 3 77 3 0 -241 0 -240 70 0 70 0 0 285 0 284 -147 3 -148 3 -12 50 c-8 29 -24 61 -42 78 -26 27 -38 30 -105 35 l-76 5 0 -52z"></path><path id="pCSCAPB0U" d="M3790 960 c0 -137 4 -250 8 -250 4 0 32 16 62 35 30 19 60 35 65 35 6 0 24 8 40 17 17 9 81 42 143 73 l114 58 -87 58 c-47 33 -126 87 -175 122 -49 34 -93 62 -97 62 -4 0 -19 9 -33 20 -14 11 -28 20 -32 20 -5 0 -8 -112 -8 -250z m203 76 c81 -55 144 -103 140 -107 -10 -9 -288 -149 -297 -149 -3 0 -6 81 -6 181 0 99 3 179 8 177 4 -1 74 -48 155 -102z"></path><path id="pOiTQWhaY" d="M1270 765 l0 -285 70 0 70 0 0 240 0 240 300 0 300 0 0 -160 0 -160 65 0 65 0 0 205 0 205 -435 0 -435 0 0 -285z"></path><path id="pjqUBCubw" d="M2880 765 l0 -285 70 0 70 0 0 285 0 285 -70 0 -70 0 0 -285z"></path><path id="pS2nYVXtd" d="M3345 958 c-3 -7 -4 -118 -3 -245 l3 -231 65 32 c36 18 85 43 110 55 25 12 52 26 60 31 8 6 49 26 90 46 l74 35 -29 25 c-17 13 -77 57 -135 96 -58 39 -125 87 -150 107 -82 67 -79 65 -85 49z"></path><path id="p1DRj5Hr5" d="M4190 880 c-19 -11 -87 -45 -150 -76 -63 -31 -126 -64 -140 -74 -14 -10 -42 -23 -62 -31 -21 -7 -38 -16 -38 -19 0 -3 21 -20 48 -37 60 -41 125 -88 266 -190 62 -46 116 -83 120 -83 3 0 6 119 6 265 0 146 -3 265 -8 265 -4 0 -23 -9 -42 -20z m0 -240 c0 -104 -2 -190 -4 -190 -2 0 -44 30 -95 68 -50 37 -119 87 -153 111 l-62 44 35 17 c19 10 86 45 149 79 63 33 118 60 123 61 4 0 7 -85 7 -190z"></path><path id="p11jVFtXjo" d="M3572 565 c-89 -46 -178 -93 -197 -105 l-36 -22 3 -122 3 -121 60 -8 c33 -4 124 -19 202 -32 78 -14 144 -25 147 -25 3 0 6 117 6 260 0 202 -3 260 -12 259 -7 0 -86 -38 -176 -84z"></path><path id="pODvqILdD" d="M3790 387 l0 -265 53 -5 c51 -6 160 -23 309 -50 43 -8 80 -12 83 -9 3 3 5 64 4 136 l0 131 -96 70 c-53 39 -121 87 -152 108 -31 21 -65 46 -76 56 -11 10 -44 34 -72 55 l-53 38 0 -265z"></path><path id="phhZsq0hp" d="M765 515 l-40 -33 34 -36 c19 -20 41 -36 49 -36 8 0 32 14 54 31 l39 32 -20 21 c-11 11 -33 29 -48 38 -28 16 -29 16 -68 -17z"></path></g></g></svg>